# xmcd
#
# Track frame offsets:
#	150
#	16412
#	36435
#	53485
#	69370
#	86716
#	102866
#	125860
#	141035
#	157563
#	177269
#	195117
#
# Disc length: 2924
#
# Revision: 1
# Processed by: cddbd v1.5.1PL0 Copyright (c) Steve Scherf et al.
# Submitted via: CDex 1.50
# Normalized: r0:TDELIM( - )
#
DISCID=920b6a0c
DTITLE=Various Artist - Ultimate Wedding Hits Vol. 2
DYEAR=2003
DGENRE=Country
TTITLE0=The Righteous Brothers - Unchained Melody
TTITLE1=LeAnn Rimes - How Do I Live
TTITLE2=Tim McGraw (With Faith Hill) - It's Your Love
TTITLE3=Steve Holy - Good Morning Beautiful
TTITLE4=Jo Dee Messina - Because You Love Me
TTITLE5=Wynonna - Only Love
TTITLE6=Brian Kennedy Feat. Selah - You Raise Me Up
TTITLE7=Jeff Carson - Not On Your Love
TTITLE8=David Kersh - Wonderful Tonight
TTITLE9=Benny Mardones - Into The Night
TTITLE10=Sawyer Brown - This Night Won't Last Forever
TTITLE11=The Judds - Love Can Build A Bridge
EXTD=YEAR: 2003
EXTT0=
EXTT1=
EXTT2=
EXTT3=
EXTT4=
EXTT5=
EXTT6=
EXTT7=
EXTT8=
EXTT9=
EXTT10=
EXTT11=
PLAYORDER=
